#!OML:ASF F:\VICON\USERDATA\INSTALL\rory3\rory3.ASF
:FULLY-SPECIFIED
:DEGREES
300
root 1.32582 16.6153 27.7646 33.2871 5.76011 0.441607
lowerback -15.9539 -2.66934 1.9971
upperback -12.1747 -3.71068 3.41606
thorax -3.96719 -1.87463 2.03523
lowerneck -9.86815 -0.253855 -1.90285
upperneck 44.2672 0.575027 -1.24666
head 18.2685 -0.269678 -0.148747
rclavicle 3.98812e-014 -1.59028e-014
rhumerus -13.5447 -18.7398 -5.49991
rradius 24.1198
rwrist 8.02985
rhand 20.5509 5.09844
rfingers 7.12502
rthumb 45.0479 -18.3822
lclavicle 3.98812e-014 -1.59028e-014
lhumerus 52.9867 10.23 9.68042
lradius 40.7587
lwrist -5.50465
lhand 19.2395 11.4896
lfingers 7.12502
lthumb 43.826 35.4371
rfemur -57.7451 5.23433 28.316
rtibia 40.0856
rfoot -49.9341 -34.8305
rtoes 38.5873
lfemur -12.5114 -3.56922 -24.5287
ltibia 29.4228
lfoot -2.96306 44.7543
ltoes 40.7409
301
root 1.3286 16.6164 27.7683 33.2505 5.74778 0.298057
lowerback -15.7105 -2.63082 2.18762
upperback -12.3189 -3.66717 3.46524
thorax -4.26466 -1.86367 2.00609
lowerneck -9.70901 -0.208753 -1.84799
upperneck 44.3911 0.662491 -1.33172
head 18.3037 -0.237123 -0.185037
rclavicle -3.25758e-014 1.82882e-014
rhumerus -13.422 -18.6298 -5.56201
rradius 24.0824
rwrist 8.14184
rhand 20.5974 4.99402
rfingers 7.12502
rthumb 45.0912 -18.4695
lclavicle -3.25758e-014 1.82882e-014
lhumerus 52.7228 9.94243 9.30118
lradius 41.0073
lwrist -5.62962
lhand 19.5018 11.6206
lfingers 7.12502
lthumb 44.0707 35.477
rfemur -57.6667 5.11531 28.5847
rtibia 39.988
rfoot -49.5312 -35.1961
rtoes 37.8992
lfemur -12.5531 -3.64937 -24.3888
ltibia 29.4998
lfoot 0.43251 44.8342
ltoes 38.5019
302
root 1.33758 16.6205 27.7754 33.1467 5.90153 0.167742
lowerback -15.4551 -2.60644 2.48382
upperback -12.4073 -3.65329 3.49398
thorax -4.51546 -1.87568 1.89122
lowerneck -9.63418 -0.196291 -1.75949
upperneck 44.438 0.677727 -1.38681
head 18.3132 -0.223249 -0.225081
rclavicle 1.66731e-014 1.98785e-014
rhumerus -13.2707 -19.0347 -5.55086
rradius 23.7916
rwrist 8.66475
rhand 20.6645 5.13849
rfingers 7.12502
rthumb 45.1536 -18.3003
lclavicle 1.66731e-014 1.98785e-014
lhumerus 52.6274 9.67779 9.01436
lradius 41.1447
lwrist -5.62658
lhand 19.5808 11.9713
lfingers 7.12502
lthumb 44.1443 35.8001
rfemur -57.4511 4.44412 29.1775
rtibia 39.8686
rfoot -48.8881 -35.1165
rtoes 37.198
lfemur -12.5086 -3.73307 -24.204
ltibia 29.6256
lfoot 4.23842 44.5276
ltoes 35.4281
303
root 1.35909 16.6285 27.784 32.9471 6.45387 -0.238415
lowerback -15.3277 -2.53628 3.34903
upperback -12.344 -3.646 3.57609
thorax -4.56933 -1.92587 1.50292
lowerneck -9.63106 -0.213424 -1.60259
upperneck 44.3883 0.688631 -1.57562
head 18.2829 -0.215664 -0.340631
rclavicle 2.8128e-014 1.59028e-015
rhumerus -13.2192 -19.378 -5.49746
rradius 23.6684
rwrist 8.95918
rhand 20.7269 4.99623
rfingers 7.12502
rthumb 45.2116 -18.4195
lclavicle 2.8128e-014 1.59028e-015
lhumerus 52.8058 9.62758 9.00091
lradius 41.1557
lwrist -5.6906
lhand 19.5752 12.071
lfingers 7.12502
lthumb 44.1392 35.9017
rfemur -57.1706 2.6324 30.8289
rtibia 39.797
rfoot -46.8484 -34.8304
rtoes 35.6646
lfemur -12.3219 -3.87347 -23.5849
ltibia 29.6957
lfoot 8.28519 43.8834
ltoes 31.5917
304
root 1.34529 16.623 27.7946 33.0936 6.21426 -0.285414
lowerback -15.5671 -2.48686 3.03692
upperback -12.302 -3.55913 3.65595
thorax -4.36991 -1.85619 1.75499
lowerneck -9.69862 -0.217976 -1.43753
upperneck 44.3421 0.722972 -1.77416
head 18.2745 -0.198906 -0.458348
rclavicle -3.9906e-014 1.03368e-014
rhumerus -13.2415 -18.5034 -5.50428
rradius 23.8494
rwrist 8.00444
rhand 20.6802 4.77707
rfingers 7.12502
rthumb 45.1682 -18.6559
lclavicle -3.9906e-014 1.03368e-014
lhumerus 52.9589 9.75186 9.16075
lradius 41.1979
lwrist -5.9771
lhand 19.6957 12.0118
lfingers 7.12502
lthumb 44.2515 35.8002
rfemur -57.2044 3.67882 30.2705
rtibia 39.645
rfoot -47.6007 -35.1139
rtoes 36.4368
lfemur -12.5725 -3.9168 -23.5801
ltibia 29.8943
lfoot 7.84359 43.94
ltoes 31.8415
305
root 1.34418 16.6213 27.8031 33.1858 6.1142 -0.263725
lowerback -15.6584 -2.47631 2.91922
upperback -12.3193 -3.53517 3.70088
thorax -4.33061 -1.83431 1.86672
lowerneck -9.61688 -0.215142 -1.48695
upperneck 44.3088 0.740878 -1.77869
head 18.2316 -0.199492 -0.447392
rclavicle -3.05631e-015 -3.18055e-015
rhumerus -13.2951 -17.5181 -5.53366
rradius 24.1684
rwrist 7.0134
rhand 20.5447 4.65036
rfingers 7.12502
rthumb 45.0422 -18.8326
lclavicle -3.05631e-015 -3.18055e-015
lhumerus 53.0255 9.80686 9.20425
lradius 41.1868
lwrist -6.17147
lhand 19.7565 11.8655
lfingers 7.12502
lthumb 44.3082 35.6324
rfemur -57.3075 3.73091 30.223
rtibia 39.711
rfoot -47.5606 -34.9887
rtoes 36.8675
lfemur -12.6115 -3.93846 -23.6329
ltibia 29.8291
lfoot 8.0598 44.0145
ltoes 31.7037
306
root 1.37663 16.6322 27.8085 32.6766 7.29682 -1.43904
lowerback -15.2553 -2.35085 4.91595
upperback -12.2136 -3.55824 3.98265
thorax -4.55598 -1.96604 1.07341
lowerneck -9.35345 -0.278444 -1.67952
upperneck 44.1528 0.603005 -1.58978
head 18.0603 -0.259878 -0.34317
rclavicle -2.53699e-014 -1.59028e-015
rhumerus -13.4796 -17.0697 -5.50386
rradius 24.5154
rwrist 6.52491
rhand 20.5739 4.47108
rfingers 7.12502
rthumb 45.0693 -19.0011
lclavicle -2.53699e-014 -1.59028e-015
lhumerus 53.1417 9.83624 9.16375
lradius 41.1043
lwrist -6.25838
lhand 19.7298 11.4658
lfingers 7.12502
lthumb 44.2833 35.2422
rfemur -56.7962 0.728336 33.5891
rtibia 39.6872
rfoot -44.242 -34.3952
rtoes 34.0683
lfemur -12.1329 -4.16373 -22.0092
ltibia 29.8317
lfoot 6.59413 44.0925
ltoes 33.4502
307
root 1.33013 16.6053 27.8295 33.478 5.47059 0.128083
lowerback -16.1533 -2.45219 2.02153
upperback -12.264 -3.42621 3.62303
thorax -3.95783 -1.72288 2.26993
lowerneck -9.26135 -0.352087 -1.77071
upperneck 44.0849 0.447085 -1.44978
head 17.9918 -0.318851 -0.285863
rclavicle 2.2736e-014 -2.70347e-014
rhumerus -13.5849 -17.0253 -5.52681
rradius 24.6749
rwrist 6.39958
rhand 20.7255 4.42008
rfingers 7.12502
rthumb 45.2103 -18.9962
lclavicle 2.2736e-014 -2.70347e-014
lhumerus 53.3003 9.93213 9.06221
lradius 40.9554
lwrist -6.13472
lhand 19.7459 11.4571
lfingers 7.12502
lthumb 44.2983 35.2278
rfemur -57.6555 4.94384 28.9665
rtibia 39.9273
rfoot -49.1163 -34.899
rtoes 37.5676
lfemur -12.6331 -3.92265 -24.2437
ltibia 29.622
lfoot 2.13767 44.5263
ltoes 37.0161
308
root 1.32423 16.6012 27.8377 33.5126 5.3602 0.0541133
lowerback -16.2494 -2.43504 1.92003
upperback -12.192 -3.39758 3.67698
thorax -3.81964 -1.69969 2.37925
lowerneck -9.41682 -0.368152 -1.73313
upperneck 44.0773 0.403297 -1.42414
head 18.0284 -0.327377 -0.288573
rclavicle 4.1223e-014 5.56597e-015
rhumerus -13.4359 -18.0878 -5.55432
rradius 24.4503
rwrist 7.20942
rhand 20.7521 4.57429
rfingers 7.12502
rthumb 45.235 -18.8321
lclavicle 4.1223e-014 5.56597e-015
lhumerus 53.477 10.2153 9.36196
lradius 40.8179
lwrist -6.59076
lhand 19.8922 11.3784
lfingers 7.12502
lthumb 44.4346 35.0973
rfemur -57.7053 5.28963 28.868
rtibia 40.007
rfoot -49.5679 -34.8398
rtoes 37.8065
lfemur -12.6149 -3.82318 -24.1904
ltibia 29.5276
lfoot 3.55752 44.4726
ltoes 35.9077
309
root 1.32034 16.5952 27.8469 33.6171 5.05813 0.133217
lowerback -16.4402 -2.39456 1.64202
upperback -12.1463 -3.31995 3.65965
thorax -3.65645 -1.64373 2.51543
lowerneck -9.44463 -0.359666 -1.69687
upperneck 43.9773 0.398955 -1.40722
head 17.9737 -0.319702 -0.286651
rclavicle 1.11816e-015 -9.54166e-015
rhumerus -13.487 -18.1606 -5.58767
rradius 24.5777
rwrist 7.1423
rhand 20.7639 4.60513
rfingers 7.12502
rthumb 45.246 -18.7969
lclavicle 1.11816e-015 -9.54166e-015
lhumerus 53.4488 10.3085 9.22642
lradius 40.9106
lwrist -6.55746
lhand 19.8824 11.507
lfingers 7.12502
lthumb 44.4256 35.2293
rfemur -57.9003 5.6752 28.5362
rtibia 40.2309
rfoot -49.87 -34.7168
rtoes 37.9006
lfemur -12.5775 -3.73651 -24.4251
ltibia 29.2349
lfoot 7.48469 44.2052
ltoes 32.3798
